<svg width="211" height="40" viewBox="0 0 211 40" fill="none" xmlns="http://www.w3.org/2000/svg">
<path d="M63.2251 18.342H61.0911V28H57.9671V18.342H56.5811V15.812H57.9671V15.196C57.9671 13.7 58.3925 12.6 59.2431 11.896C60.0938 11.192 61.3771 10.862 63.0931 10.906V13.502C62.3451 13.4873 61.8245 13.612 61.5311 13.876C61.2378 14.14 61.0911 14.6167 61.0911 15.306V15.812H63.2251V18.342ZM64.4291 21.862C64.4291 20.63 64.6711 19.5373 65.1551 18.584C65.6538 17.6307 66.3211 16.8973 67.1571 16.384C68.0078 15.8707 68.9538 15.614 69.9951 15.614C70.9045 15.614 71.6965 15.7973 72.3711 16.164C73.0605 16.5307 73.6105 16.9927 74.0211 17.55V15.812H77.1231V28H74.0211V26.218C73.6251 26.79 73.0751 27.2667 72.3711 27.648C71.6818 28.0147 70.8825 28.198 69.9731 28.198C68.9465 28.198 68.0078 27.934 67.1571 27.406C66.3211 26.878 65.6538 26.1373 65.1551 25.184C64.6711 24.216 64.4291 23.1087 64.4291 21.862ZM74.0211 21.906C74.0211 21.158 73.8745 20.52 73.5811 19.992C73.2878 19.4493 72.8918 19.0387 72.3931 18.76C71.8945 18.4667 71.3591 18.32 70.7871 18.32C70.2151 18.32 69.6871 18.4593 69.2031 18.738C68.7191 19.0167 68.3231 19.4273 68.0151 19.97C67.7218 20.498 67.5751 21.1287 67.5751 21.862C67.5751 22.5953 67.7218 23.2407 68.0151 23.798C68.3231 24.3407 68.7191 24.7587 69.2031 25.052C69.7018 25.3453 70.2298 25.492 70.7871 25.492C71.3591 25.492 71.8945 25.3527 72.3931 25.074C72.8918 24.7807 73.2878 24.37 73.5811 23.842C73.8745 23.2993 74.0211 22.654 74.0211 21.906ZM95.2673 15.636C96.7633 15.636 97.9659 16.098 98.8753 17.022C99.7993 17.9313 100.261 19.2073 100.261 20.85V28H97.1813V21.268C97.1813 20.3147 96.9393 19.5887 96.4553 19.09C95.9713 18.5767 95.3113 18.32 94.4753 18.32C93.6393 18.32 92.9719 18.5767 92.4733 19.09C91.9893 19.5887 91.7473 20.3147 91.7473 21.268V28H88.6673V21.268C88.6673 20.3147 88.4253 19.5887 87.9413 19.09C87.4573 18.5767 86.7973 18.32 85.9613 18.32C85.1106 18.32 84.4359 18.5767 83.9373 19.09C83.4533 19.5887 83.2113 20.3147 83.2113 21.268V28H80.1313V15.812H83.2113V17.286C83.6073 16.7727 84.1133 16.3693 84.7293 16.076C85.3599 15.7827 86.0493 15.636 86.7973 15.636C87.7506 15.636 88.6013 15.8413 89.3493 16.252C90.0973 16.648 90.6766 17.22 91.0873 17.968C91.4833 17.264 92.0553 16.6993 92.8033 16.274C93.5659 15.8487 94.3873 15.636 95.2673 15.636ZM104.746 14.36C104.203 14.36 103.749 14.1913 103.382 13.854C103.03 13.502 102.854 13.0693 102.854 12.556C102.854 12.0427 103.03 11.6173 103.382 11.28C103.749 10.928 104.203 10.752 104.746 10.752C105.289 10.752 105.736 10.928 106.088 11.28C106.455 11.6173 106.638 12.0427 106.638 12.556C106.638 13.0693 106.455 13.502 106.088 13.854C105.736 14.1913 105.289 14.36 104.746 14.36ZM106.264 15.812V28H103.184V15.812H106.264ZM112.387 11.72V28H109.307V11.72H112.387ZM127.09 15.812L119.544 33.764H116.266L118.906 27.692L114.022 15.812H117.476L120.622 24.326L123.812 15.812H127.09ZM149.129 15.636C150.625 15.636 151.827 16.098 152.737 17.022C153.661 17.9313 154.123 19.2073 154.123 20.85V28H151.043V21.268C151.043 20.3147 150.801 19.5887 150.317 19.09C149.833 18.5767 149.173 18.32 148.337 18.32C147.501 18.32 146.833 18.5767 146.335 19.09C145.851 19.5887 145.609 20.3147 145.609 21.268V28H142.529V21.268C142.529 20.3147 142.287 19.5887 141.803 19.09C141.319 18.5767 140.659 18.32 139.823 18.32C138.972 18.32 138.297 18.5767 137.799 19.09C137.315 19.5887 137.073 20.3147 137.073 21.268V28H133.993V15.812H137.073V17.286C137.469 16.7727 137.975 16.3693 138.591 16.076C139.221 15.7827 139.911 15.636 140.659 15.636C141.612 15.636 142.463 15.8413 143.211 16.252C143.959 16.648 144.538 17.22 144.949 17.968C145.345 17.264 145.917 16.6993 146.665 16.274C147.427 15.8487 148.249 15.636 149.129 15.636ZM162.457 28.198C161.284 28.198 160.228 27.9413 159.289 27.428C158.351 26.9 157.61 26.1593 157.067 25.206C156.539 24.2527 156.275 23.1527 156.275 21.906C156.275 20.6593 156.547 19.5593 157.089 18.606C157.647 17.6527 158.402 16.9193 159.355 16.406C160.309 15.878 161.372 15.614 162.545 15.614C163.719 15.614 164.782 15.878 165.735 16.406C166.689 16.9193 167.437 17.6527 167.979 18.606C168.537 19.5593 168.815 20.6593 168.815 21.906C168.815 23.1527 168.529 24.2527 167.957 25.206C167.4 26.1593 166.637 26.9 165.669 27.428C164.716 27.9413 163.645 28.198 162.457 28.198ZM162.457 25.514C163.015 25.514 163.535 25.382 164.019 25.118C164.518 24.8393 164.914 24.4287 165.207 23.886C165.501 23.3433 165.647 22.6833 165.647 21.906C165.647 20.7473 165.339 19.86 164.723 19.244C164.122 18.6133 163.381 18.298 162.501 18.298C161.621 18.298 160.881 18.6133 160.279 19.244C159.693 19.86 159.399 20.7473 159.399 21.906C159.399 23.0647 159.685 23.9593 160.257 24.59C160.844 25.206 161.577 25.514 162.457 25.514ZM177.829 15.636C179.281 15.636 180.454 16.098 181.349 17.022C182.243 17.9313 182.691 19.2073 182.691 20.85V28H179.611V21.268C179.611 20.3 179.369 19.5593 178.885 19.046C178.401 18.518 177.741 18.254 176.905 18.254C176.054 18.254 175.379 18.518 174.881 19.046C174.397 19.5593 174.155 20.3 174.155 21.268V28H171.075V15.812H174.155V17.33C174.565 16.802 175.086 16.3913 175.717 16.098C176.362 15.79 177.066 15.636 177.829 15.636ZM196.95 21.642C196.95 22.082 196.92 22.478 196.862 22.83H187.952C188.025 23.71 188.333 24.3993 188.876 24.898C189.418 25.3967 190.086 25.646 190.878 25.646C192.022 25.646 192.836 25.1547 193.32 24.172H196.642C196.29 25.3453 195.615 26.3133 194.618 27.076C193.62 27.824 192.396 28.198 190.944 28.198C189.77 28.198 188.714 27.9413 187.776 27.428C186.852 26.9 186.126 26.1593 185.598 25.206C185.084 24.2527 184.828 23.1527 184.828 21.906C184.828 20.6447 185.084 19.5373 185.598 18.584C186.111 17.6307 186.83 16.8973 187.754 16.384C188.678 15.8707 189.741 15.614 190.944 15.614C192.102 15.614 193.136 15.8633 194.046 16.362C194.97 16.8607 195.681 17.572 196.18 18.496C196.693 19.4053 196.95 20.454 196.95 21.642ZM193.76 20.762C193.745 19.97 193.459 19.3393 192.902 18.87C192.344 18.386 191.662 18.144 190.856 18.144C190.093 18.144 189.448 18.3787 188.92 18.848C188.406 19.3027 188.091 19.9407 187.974 20.762H193.76ZM210.858 15.812L203.312 33.764H200.034L202.674 27.692L197.79 15.812H201.244L204.39 24.326L207.58 15.812H210.858Z" fill="white"/>
<path d="M34.1422 5.85781C30.3647 2.08031 25.3422 0 20 0C14.6578 0 9.63531 2.08031 5.85781 5.85781C2.08031 9.63531 0 14.6578 0 20C0 25.3422 2.08039 30.3646 5.85781 34.1422C9.63523 37.9198 14.6578 40 20 40C25.3422 40 30.3647 37.9197 34.1422 34.1422C37.9197 30.3647 40 25.3422 40 20C40 14.6578 37.9196 9.63539 34.1422 5.85781Z" fill="#33CC95"/>
<g clip-path="url(#clip0)">
<path d="M20.5715 8V33.1429" stroke="white" stroke-width="2" stroke-linecap="round" stroke-linejoin="round"/>
<path d="M26.2858 12.5714H17.7144C16.6535 12.5714 15.6361 12.9929 14.8859 13.743C14.1358 14.4932 13.7144 15.5106 13.7144 16.5714C13.7144 17.6323 14.1358 18.6497 14.8859 19.3999C15.6361 20.15 16.6535 20.5714 17.7144 20.5714H23.4286C24.4895 20.5714 25.5069 20.9929 26.2571 21.743C27.0072 22.4932 27.4286 23.5106 27.4286 24.5714C27.4286 25.6323 27.0072 26.6497 26.2571 27.3999C25.5069 28.15 24.4895 28.5714 23.4286 28.5714H13.7144" stroke="white" stroke-width="2" stroke-linecap="round" stroke-linejoin="round"/>
</g>
<defs>
<clipPath id="clip0">
<rect width="27.4286" height="27.4286" fill="white" transform="translate(6.85718 6.85715)"/>
</clipPath>
</defs>
</svg>
